<?xml version="1.0" standalone="no"?>
<!DOCTYPE svg PUBLIC "-//W3C//DTD SVG 20010904//EN"
 "http://www.w3.org/TR/2001/REC-SVG-20010904/DTD/svg10.dtd">
<svg version="1.0" xmlns="http://www.w3.org/2000/svg"
 width="1204.000000pt" height="1204.000000pt" viewBox="0 0 1204.000000 1204.000000"
 preserveAspectRatio="xMidYMid meet">
<metadata>
Created by potrace 1.11, written by Peter Selinger 2001-2013
</metadata>
<g transform="translate(0.000000,1204.000000) scale(0.100000,-0.100000)"
fill="#000000" stroke="none">
<path d="M71 8702 c-41 -22 -71 -74 -71 -120 0 -27 155 -414 255 -637 8 -16
32 -75 55 -130 23 -55 47 -113 55 -130 7 -16 43 -102 80 -190 37 -88 76 -180
87 -205 28 -66 30 -70 103 -245 37 -88 73 -173 80 -190 8 -16 81 -190 163
-385 397 -942 534 -1267 547 -1295 7 -16 73 -172 145 -345 73 -173 141 -333
151 -355 10 -22 115 -272 234 -555 119 -282 224 -527 233 -542 33 -56 128 -75
189 -38 39 23 66 73 65 117 -1 26 -77 221 -147 378 -7 17 -117 278 -245 580
-128 303 -306 726 -397 940 -91 215 -173 411 -183 436 -10 26 -27 66 -38 90
-11 24 -32 73 -47 109 -15 36 -33 79 -41 95 -7 17 -31 75 -54 130 -23 55 -47
114 -55 130 -7 17 -49 117 -94 223 -265 628 -462 1095 -476 1127 -8 17 -62
145 -120 285 -59 140 -113 269 -120 285 -8 17 -39 91 -70 165 -31 74 -63 148
-71 164 -8 16 -14 34 -14 41 0 6 -15 26 -34 44 -44 43 -112 52 -165 23z"/>
<path d="M815 8707 c-26 -16 -38 -28 -58 -57 -33 -48 -23 -93 78 -330 53 -124
121 -286 152 -360 30 -74 58 -139 61 -145 4 -5 7 -12 8 -15 1 -7 22 -58 39
-95 8 -16 26 -59 40 -95 15 -36 33 -78 41 -95 7 -16 75 -176 149 -355 135
-321 148 -351 178 -420 8 -19 38 -91 67 -160 29 -69 58 -138 65 -155 8 -16 77
-181 155 -365 77 -184 144 -344 149 -355 25 -57 52 -121 201 -475 89 -212 167
-398 175 -415 7 -16 62 -145 120 -285 59 -140 118 -269 130 -286 56 -74 186
-60 230 26 26 50 17 89 -61 275 -42 99 -125 297 -186 440 -60 143 -115 274
-123 290 -7 17 -37 86 -65 155 -66 158 -457 1085 -475 1125 -8 17 -32 73 -53
125 -45 108 -386 917 -409 970 -28 63 -39 90 -233 550 -105 250 -199 463 -208
474 -40 43 -122 60 -167 33z"/>
<path d="M1545 8701 c-39 -23 -68 -74 -67 -119 0 -24 32 -112 87 -242 48 -113
123 -290 167 -395 43 -104 85 -203 93 -220 7 -16 23 -55 36 -85 12 -30 26 -59
31 -65 4 -5 8 -15 8 -22 0 -7 11 -36 24 -65 29 -65 97 -225 256 -603 67 -159
128 -303 135 -320 8 -16 44 -102 81 -190 92 -220 282 -671 304 -720 10 -22 61
-146 115 -275 102 -244 130 -291 190 -306 67 -17 146 29 166 97 13 43 5 83
-33 169 -11 25 -26 59 -33 75 -41 98 -70 165 -85 200 -10 22 -38 90 -63 151
-47 114 -128 306 -152 359 -8 17 -50 116 -93 220 -178 426 -324 772 -341 810
-10 22 -35 81 -56 130 -20 50 -43 104 -50 120 -8 17 -57 134 -110 260 -53 127
-103 244 -110 260 -8 17 -78 183 -156 370 -78 187 -151 353 -162 369 -37 53
-124 71 -182 37z"/>
<path d="M2279 8697 c-41 -27 -62 -67 -62 -116 0 -23 48 -148 136 -356 74
-176 202 -480 285 -675 82 -195 247 -587 366 -870 120 -283 223 -528 231 -545
7 -16 25 -56 38 -87 29 -66 71 -98 129 -98 59 0 105 28 129 77 26 53 22 78
-27 193 -20 47 -97 229 -171 405 -74 176 -140 334 -148 350 -7 17 -32 75 -55
130 -23 55 -48 114 -55 130 -7 17 -140 332 -295 700 -156 369 -291 687 -302
708 -37 75 -131 100 -199 54z"/>
<path d="M3023 8701 c-40 -25 -61 -56 -68 -102 -5 -31 22 -102 183 -485 374
-887 464 -1099 477 -1129 8 -16 69 -160 136 -320 111 -266 145 -345 169 -400
5 -11 39 -92 75 -180 37 -88 76 -180 87 -204 10 -24 28 -64 38 -90 20 -51 234
-557 256 -606 7 -16 75 -176 149 -355 75 -179 143 -338 150 -355 8 -16 44
-102 80 -190 37 -88 74 -175 82 -193 15 -33 43 -100 200 -477 101 -240 107
-252 146 -275 40 -25 109 -26 148 -3 37 22 70 88 64 129 -4 36 -5 37 -190 474
-75 179 -173 411 -217 515 -43 105 -85 204 -93 220 -7 17 -30 71 -50 120 -21
50 -45 108 -55 130 -10 22 -55 128 -100 235 -45 107 -88 209 -95 225 -7 17
-24 57 -38 90 -13 33 -75 179 -137 325 -62 146 -129 306 -150 355 -62 147
-231 548 -245 580 -8 17 -32 75 -55 130 -23 55 -47 114 -55 130 -11 26 -238
562 -422 1000 -30 72 -79 186 -108 255 -29 69 -60 143 -70 165 -9 22 -38 89
-63 149 -53 124 -75 147 -149 153 -36 3 -56 -1 -80 -16z"/>
<path d="M3763 8700 c-39 -24 -62 -57 -69 -102 -6 -32 30 -134 106 -303 17
-38 201 -475 466 -1105 68 -162 131 -308 138 -325 8 -16 38 -86 66 -155 29
-69 58 -138 65 -155 8 -16 57 -133 110 -260 53 -126 103 -243 110 -260 8 -16
26 -59 40 -95 25 -61 33 -79 69 -162 8 -18 44 -105 81 -193 336 -802 590
-1393 603 -1409 62 -68 175 -57 223 21 35 56 24 99 -114 423 -211 498 -505
1195 -589 1395 -43 105 -85 204 -92 220 -8 17 -26 59 -41 95 -15 36 -33 79
-41 95 -20 48 -503 1191 -544 1290 -32 75 -80 191 -167 395 -8 19 -20 49 -28
65 -7 17 -55 129 -106 250 -51 121 -99 230 -106 242 -33 50 -124 68 -180 33z"/>
<path d="M4510 8707 c-66 -31 -95 -114 -66 -186 8 -22 24 -59 35 -83 10 -24
49 -115 86 -203 141 -335 417 -991 430 -1020 8 -16 100 -235 205 -485 105
-250 197 -468 204 -485 8 -16 44 -102 81 -190 37 -88 73 -173 80 -190 15 -34
276 -653 308 -730 45 -109 80 -133 185 -126 12 0 38 16 58 34 29 26 37 42 41
79 6 53 10 43 -112 328 -45 107 -156 368 -245 580 -89 212 -168 399 -176 415
-12 27 -123 290 -516 1225 -167 396 -257 610 -273 645 -7 17 -41 98 -76 180
-34 83 -69 160 -76 172 -30 46 -117 66 -173 40z"/>
<path d="M5241 8702 c-40 -22 -71 -73 -71 -118 0 -27 41 -140 95 -259 7 -16
50 -118 95 -225 45 -107 93 -219 106 -248 13 -29 24 -54 24 -57 0 -3 122 -296
155 -370 7 -16 50 -118 95 -225 45 -107 116 -274 157 -370 41 -96 79 -186 83
-200 11 -32 96 -229 110 -252 5 -10 10 -22 10 -28 0 -5 11 -33 24 -62 14 -29
52 -118 86 -198 34 -80 69 -153 78 -163 65 -72 185 -56 227 30 8 17 15 45 15
63 0 26 -38 128 -95 255 -7 17 -67 158 -133 315 -66 157 -188 447 -272 645
-193 459 -179 425 -195 460 -8 17 -37 86 -65 155 -29 69 -65 154 -80 190 -16
36 -65 153 -110 260 -157 373 -162 384 -204 404 -45 21 -93 20 -135 -2z"/>
<path d="M5977 8702 c-39 -24 -67 -71 -67 -114 0 -21 16 -77 36 -125 51 -124
223 -532 239 -568 7 -16 39 -91 70 -165 31 -74 62 -148 70 -165 7 -16 79 -187
160 -380 81 -192 154 -359 162 -371 35 -54 116 -74 178 -43 40 19 75 74 75
117 0 28 -91 265 -165 427 -7 17 -57 134 -110 260 -52 127 -102 244 -109 260
-8 17 -26 59 -41 95 -14 36 -32 79 -40 95 -7 17 -68 161 -135 320 -67 160
-128 300 -136 313 -37 57 -129 79 -187 44z"/>
<path d="M6721 8703 c-18 -9 -42 -31 -52 -47 -35 -57 -26 -95 82 -351 56 -132
136 -323 179 -423 43 -104 89 -196 104 -213 91 -96 263 -1 231 128 -5 23 -125
314 -180 438 -8 17 -26 59 -40 95 -14 36 -34 83 -44 105 -10 22 -35 81 -56
130 -20 50 -44 98 -53 109 -42 47 -111 58 -171 29z"/>
<path d="M7452 8700 c-62 -38 -81 -119 -47 -195 7 -16 111 -262 230 -545 119
-283 223 -529 230 -545 13 -28 36 -83 40 -95 1 -3 9 -21 17 -40 9 -19 27 -62
41 -95 13 -33 111 -265 217 -515 106 -250 253 -599 327 -775 74 -176 159 -376
188 -445 29 -69 90 -213 135 -320 45 -107 88 -208 95 -225 7 -16 50 -118 95
-225 45 -107 89 -211 98 -230 8 -19 32 -75 52 -125 69 -168 371 -880 392 -923
26 -54 69 -82 127 -82 77 0 141 61 141 135 0 28 -5 41 -288 710 -104 248 -245
581 -312 740 -66 160 -128 305 -137 323 -8 19 -39 91 -68 160 -78 188 -245
582 -260 617 -14 32 -246 582 -335 795 -29 68 -60 143 -70 165 -10 22 -46 108
-80 190 -34 83 -70 168 -80 190 -10 22 -30 69 -45 105 -14 36 -32 79 -40 95
-7 17 -43 102 -80 190 -37 88 -105 250 -152 360 -47 110 -107 254 -135 320
-91 219 -115 263 -150 285 -42 26 -104 26 -146 0z"/>
<path d="M8193 8701 c-41 -26 -60 -56 -66 -105 -5 -37 14 -91 118 -331 29 -68
199 -470 367 -870 44 -104 86 -203 93 -220 7 -16 32 -75 55 -130 23 -55 48
-115 56 -132 8 -18 20 -48 28 -65 8 -18 94 -222 191 -453 364 -864 396 -938
409 -969 7 -17 26 -60 41 -96 77 -186 408 -969 420 -995 7 -16 37 -86 65 -155
29 -69 58 -138 66 -155 7 -16 68 -160 135 -320 147 -350 142 -341 182 -365 90
-55 206 4 213 109 1 26 -47 151 -188 485 -105 248 -226 537 -270 641 -43 105
-85 204 -93 220 -7 17 -50 118 -95 225 -45 107 -90 213 -100 235 -10 22 -70
166 -135 320 -65 154 -174 413 -242 575 -69 162 -136 320 -148 350 -13 30 -30
73 -40 95 -9 22 -24 56 -32 75 -8 19 -21 49 -28 65 -8 17 -43 100 -78 185 -74
178 -252 601 -272 645 -18 41 -364 862 -375 889 -4 12 -17 42 -28 66 -11 25
-31 70 -45 102 -14 31 -37 64 -52 74 -41 27 -114 29 -152 5z"/>
<path d="M8950 8713 c-28 -10 -69 -56 -80 -88 -16 -48 -8 -82 50 -210 10 -22
30 -69 45 -105 14 -36 32 -78 40 -95 7 -16 25 -59 40 -95 14 -36 32 -78 40
-95 7 -16 111 -262 230 -545 119 -283 226 -535 237 -560 11 -24 24 -55 29 -67
5 -13 44 -108 88 -211 102 -242 545 -1291 668 -1582 52 -124 100 -238 108
-255 7 -16 50 -118 95 -225 45 -107 88 -208 95 -225 7 -16 43 -102 80 -190 37
-88 75 -178 85 -200 9 -22 64 -150 120 -285 126 -302 133 -316 173 -341 45
-28 127 -22 163 12 35 32 53 76 48 118 -2 18 -39 117 -83 220 -43 102 -116
274 -161 381 -45 107 -138 326 -205 485 -239 566 -515 1220 -857 2030 -60 143
-115 274 -123 290 -7 17 -25 59 -40 95 -14 36 -32 79 -40 95 -13 30 -168 398
-350 830 -347 825 -327 781 -376 807 -32 17 -87 22 -119 11z"/>
<path d="M10375 8708 c-41 -22 -75 -63 -81 -97 -4 -20 -7 -445 -7 -946 0
-1005 -4 -947 63 -995 79 -57 206 -15 226 74 4 17 7 445 7 952 0 872 -1 922
-18 951 -35 60 -135 92 -190 61z"/>
<path d="M11110 8697 c-19 -12 -43 -37 -54 -56 -19 -33 -19 -62 -19 -1835 0
-1674 1 -1804 17 -1836 26 -55 61 -75 131 -75 68 0 115 26 136 76 8 22 11 475
11 1840 0 1783 0 1811 -19 1838 -53 71 -139 92 -203 48z"/>
<path d="M11820 8698 c-18 -13 -42 -35 -53 -49 -19 -26 -19 -66 -19 -2583 l0
-2557 23 -34 c56 -81 169 -86 239 -10 l25 27 0 2573 0 2573 -25 27 c-55 59
-132 72 -190 33z"/>
<path d="M7485 6854 c-41 -21 -67 -59 -72 -108 -5 -45 -12 -28 177 -476 45
-107 117 -278 160 -380 318 -757 542 -1288 550 -1305 5 -11 89 -209 186 -440
97 -231 185 -439 195 -462 10 -23 19 -44 19 -47 0 -6 14 -40 80 -190 43 -97
77 -126 151 -126 87 0 151 81 130 166 -5 22 -65 172 -134 334 -119 283 -702
1665 -984 2335 -74 176 -138 329 -143 340 -5 11 -37 85 -70 164 -33 80 -68
154 -78 164 -42 47 -111 60 -167 31z"/>
<path d="M7495 5156 c-48 -21 -77 -60 -82 -110 -5 -37 2 -63 42 -158 73 -175
125 -299 147 -347 11 -24 28 -65 38 -91 10 -26 28 -67 38 -91 11 -24 74 -172
140 -329 66 -157 155 -367 197 -467 90 -213 113 -243 193 -243 83 0 142 56
142 134 0 23 -52 160 -150 393 -83 197 -157 372 -165 388 -7 17 -86 203 -175
415 -190 452 -197 467 -231 492 -33 25 -95 31 -134 14z"/>
<path d="M7445 3602 c-11 -2 -32 -13 -48 -24 -109 -78 -52 -251 83 -251 109 0
175 125 114 219 -27 41 -96 67 -149 56z"/>
</g>
</svg>
